<svg width="400" height="400" viewBox="0 0 400 400" fill="none" xmlns="http://www.w3.org/2000/svg">
<path fill-rule="evenodd" clip-rule="evenodd" d="M130.674 38H192.231L380.361 362H20.9254L179.243 127.088C183.158 121.278 183.109 113.662 179.118 107.904L130.674 38ZM395.404 362.018L395.394 362L200.871 26.9914C200.155 25.7587 198.837 25 197.412 25H121.665H121.554H119.259H113.487C110.259 25 108.361 28.6256 110.199 31.2784L113.487 36.0225L114.794 37.9094L114.857 38L168.433 115.309C169.372 116.663 169.384 118.456 168.462 119.823L5.24866 362L5.19806 362.075L4.00677 363.843L0.68976 368.765C-1.1008 371.421 0.802891 375 4.00677 375H9.94198H12.0736H12.1641H387.909H387.931H389.105H395.994C399.078 375 401.002 371.658 399.453 368.991L395.994 363.034L395.404 362.018ZM271.122 299.778L271.123 299.78L271.324 300.163L274.866 306.921C276.263 309.584 274.331 312.778 271.324 312.778H263.694H263.261H263.259H137.17H137.079H134.947H129.013C125.809 312.778 123.905 309.199 125.696 306.542L129.013 301.621L130.204 299.853L130.255 299.778L169.583 241.431C170.327 240.328 171.57 239.667 172.9 239.667H237.189C238.676 239.667 240.041 240.492 240.731 241.809L271.122 299.778ZM129.013 325.778H271.324C284.104 325.778 292.314 312.204 286.38 300.884L252.245 235.773C249.31 230.174 243.51 226.667 237.189 226.667H172.9C167.247 226.667 161.963 229.477 158.803 234.165L114.916 299.276C107.305 310.568 115.396 325.778 129.013 325.778Z" fill="white"/>
</svg>
